<svg width="900" height="640" viewBox="0 0 900 640" xmlns="http://www.w3.org/2000/svg" role="img" aria-label="Glide ID biometric mesh">
  <defs>
    <linearGradient id="bg" x1="0" y1="0" x2="1" y2="1">
      <stop offset="0%" stop-color="#0b1220"/>
      <stop offset="50%" stop-color="#0f1b2d"/>
      <stop offset="100%" stop-color="#0b1220"/>
    </linearGradient>
    <linearGradient id="accent" x1="0" y1="0" x2="1" y2="1">
      <stop offset="0%" stop-color="#38bdf8"/>
      <stop offset="100%" stop-color="#22c55e"/>
    </linearGradient>
  </defs>
  <rect width="900" height="640" rx="36" fill="url(#bg)"/>
  <g opacity="0.25" stroke="#94a3b8" stroke-width="1">
    <path d="M80 140 H820"/>
    <path d="M80 240 H820"/>
    <path d="M80 340 H820"/>
    <path d="M80 440 H820"/>
    <path d="M80 540 H820"/>
    <path d="M160 80 V560"/>
    <path d="M300 80 V560"/>
    <path d="M440 80 V560"/>
    <path d="M580 80 V560"/>
    <path d="M720 80 V560"/>
  </g>
  <g stroke="url(#accent)" stroke-width="2" fill="none" opacity="0.85">
    <circle cx="450" cy="300" r="150"/>
    <circle cx="450" cy="300" r="210" opacity="0.55"/>
    <path d="M395 275c15-18 35-28 55-28s40 10 55 28"/>
    <path d="M350 355c30 30 70 45 100 45s70-15 100-45"/>
  </g>
  <g fill="#e2e8f0" opacity="0.9">
    <circle cx="260" cy="220" r="6"/>
    <circle cx="630" cy="220" r="6"/>
    <circle cx="300" cy="420" r="6"/>
    <circle cx="600" cy="420" r="6"/>
  </g>
  <g fill="url(#accent)" opacity="0.9">
    <circle cx="450" cy="160" r="10"/>
    <circle cx="450" cy="440" r="10"/>
  </g>
  <rect x="120" y="470" width="260" height="90" rx="18" fill="#0f172a" stroke="#1e293b"/>
  <text x="150" y="510" fill="#e2e8f0" font-family="'Segoe UI', sans-serif" font-size="18">Vectorized</text>
  <text x="150" y="538" fill="#94a3b8" font-family="'Segoe UI', sans-serif" font-size="12">AES-256 • HNSW • RLS</text>
  <rect x="520" y="470" width="260" height="90" rx="18" fill="#0f172a" stroke="#1e293b"/>
  <text x="550" y="510" fill="#e2e8f0" font-family="'Segoe UI', sans-serif" font-size="18">Live</text>
  <text x="550" y="538" fill="#94a3b8" font-family="'Segoe UI', sans-serif" font-size="12">Passive + Active checks</text>
</svg>
